<svg width="812" height="443" viewBox="0 0 812 443" fill="none" xmlns="http://www.w3.org/2000/svg">
<path d="M3.0271 40.0574C-2.30623 51.2241 -0.372898 81.2574 50.0271 112.057C61.8604 117.391 96.4271 127.557 140.027 125.557H142.027C176.86 167.057 248.927 251.357 258.527 256.557C279.194 272.224 326.527 305.157 350.527 311.557C381.194 318.057 449.527 329.557 477.527 323.557V341.057L475.527 347.057V353.557C457.36 378.224 419.727 427.357 414.527 426.557C410.86 428.557 404.427 433.957 408.027 439.557C412.86 441.557 425.627 444.057 438.027 438.057C447.86 434.891 467.827 427.257 469.027 422.057C469.194 419.557 470.327 414.557 473.527 414.557C478.36 415.557 491.627 412.657 506.027 393.057V383.057H510.027V380.057C516.36 376.891 527.927 368.257 523.527 359.057C532.527 346.557 549.927 319.557 547.527 311.557L548.027 308.057C553.527 306.891 565.627 304.257 570.027 303.057L597.027 348.057C597.36 353.724 599.027 365.857 603.027 369.057C603.694 373.557 605.627 383.057 608.027 385.057C607.694 387.391 608.327 393.357 613.527 398.557C615.194 398.891 618.627 400.157 619.027 402.557C619.427 404.957 619.194 404.557 619.027 404.057C619.527 408.391 621.927 417.457 627.527 419.057C630.36 417.724 636.427 412.857 638.027 404.057C638.36 399.391 638.927 389.757 638.527 388.557C641.36 384.391 645.427 372.857 639.027 360.057C641.86 355.391 646.927 345.557 644.527 343.557C643.194 338.891 639.227 329.157 634.027 327.557C633.86 322.891 632.527 313.457 628.527 313.057C624.86 302.891 618.127 282.457 620.527 282.057C649.527 262.224 705.327 223.157 696.527 225.557L724.527 202.557L733.027 197.557L740.027 193.557L748.527 187.057H754.527L759.027 183.057L763.027 180.057L768.027 176.557L771.527 175.057L774.527 172.057L779.527 170.557L788.527 169.057H792.027H794.027L797.027 164.557L799.527 160.557L801.527 159.057L804.027 156.057V152.057V147.057L805.527 144.057L807.527 139.557L811.027 135.557C811.86 129.391 810.727 117.057 799.527 117.057L785.027 114.057H778.027H768.027H754.527H748.527H740.027H733.027H728.027H724.527H721.027H717.527C713.527 116.891 702.527 122.657 690.527 123.057L659.527 125.057L638.527 126.557L626.027 127.557L620.527 130.057L610.527 134.057H604.527H598.027H595.527L593.027 136.057L589.527 137.557L581.027 139.557L572.027 142.057L563.527 144.057H556.527L548.027 145.557H543.027H537.527H533.527L529.027 147.057L526.027 148.557H518.027H509.027H500.027H491.527H479.027C449.36 150.391 386.027 152.957 370.027 148.557C361.527 148.891 339.527 144.857 319.527 126.057L301.527 116.057H298.527L297.527 117.057L285.027 131.057H213.027C204.527 125.724 187.027 114.457 185.027 112.057C202.194 97.7241 235.927 68.5574 233.527 66.5574C234.694 47.5574 234.427 7.85741 224.027 1.05741C221.027 0.390747 213.427 5.25741 207.027 30.0574C200.694 30.8907 187.527 35.2574 185.527 46.0574C176.527 44.3908 154.227 48.1574 137.027 76.5574C119.827 104.957 129.86 88.7241 137.027 77.0574H127.527C123.027 72.8908 111.727 64.8574 102.527 66.0574H59.5271C56.6938 61.2241 48.8271 53.1574 40.0271 59.5574C38.0271 56.2241 32.3271 49.7574 25.5271 50.5574C18.1938 45.3908 3.42711 36.1574 3.0271 40.5574V40.0574Z" stroke="black"/>
</svg>
